<svg xmlns="http://www.w3.org/2000/svg" width="60" height="60" viewBox="-1940 -3899.05 60 60"><g data-name="CompositeLayer"><path d="M-1940-3869.1a30 30 0 1 1 0 .1z" fill="#191919" fill-rule="evenodd" data-name="Ellipse 10"/><path d="M-1906.37-3866.6a.985.985 0 0 1 .9-.26l3.67.73c.46.09.8.5.8.98v4.15c0 .56-.47 1.03-1.03 1-2.89-.17-5.6-1.06-7.97-2.43a18.075 18.075 0 0 1-6.57-6.57c-1.38-2.37-2.26-5.08-2.43-7.97-.03-.56.44-1.03 1-1.03h4.15c.48 0 .89.34.98.8l.75 3.68c.06.33-.04.66-.27.9l-2.5 2.52c1.43 2.5 3.5 4.57 6 6l2.52-2.5Z" fill="#fff" fill-rule="evenodd" data-name="Vector"/></g></svg>