<?xml version="1.0" encoding="UTF-8" standalone="no"?>
<!-- Created with Inkscape (http://www.inkscape.org/) -->

<svg
   width="11.641437mm"
   height="11.641549mm"
   viewBox="0 0 11.641437 11.641549"
   version="1.1"
   id="svg5"
   xmlns="http://www.w3.org/2000/svg"
   xmlns:svg="http://www.w3.org/2000/svg">
  <defs
     id="defs2" />
  <g
     id="layer1"
     style="display:inline"
     transform="translate(-0.09657449,-1.1208961)">
    <g
       data-name="Logo"
       id="g1324"
       transform="matrix(0.26458333,0,0,0.26458333,-84.041057,-7.874887)">
      <g
         data-name="Txt"
         id="g828" />
      <g
         data-name="Icon"
         id="g1322">
        <g
           data-name="#9437f0ff"
           id="g832">
          <path
             d="m 346.988,35.358 c 2.76,-1.15 5.882,-1.778 8.833,-1.04 a 7.778,7.778 0 0 1 4.857,3.667 c -0.763,0.013 -1.525,0.015 -2.288,0.025 -0.87,-1.262 -2.2,-2.172 -3.669,-2.595 -2.269,-0.667 -4.683,-0.542 -6.989,-0.152 -0.245,0.049 -0.494,0.085 -0.744,0.095 z"
             fill="#9437f0"
             fill-rule="evenodd"
             data-name="Vector"
             id="path830" />
        </g>
        <g
           data-name="#9435f3ff"
           id="g836">
          <path
             d="m 338.533,35.594 c 0.51,-0.022 1.022,-0.043 1.535,-0.026 0.07,0.537 0.096,1.079 0.07,1.619 -0.486,-0.036 -0.974,-0.017 -1.459,-0.059 -0.06,-0.51 -0.103,-1.021 -0.146,-1.534 z"
             fill="#9435f3"
             fill-rule="evenodd"
             data-name="Vector"
             id="path834" />
        </g>
        <g
           data-name="#8b39f7ff"
           id="g840">
          <path
             d="m 340.067,35.568 c 0.572,0.022 1.143,0.055 1.713,0.111 -0.22,0.528 -0.32,1.215 0.062,1.69 -0.453,-0.044 -0.907,-0.08 -1.36,-0.123 l -0.344,-0.059 a 9.223,9.223 0 0 0 -0.07,-1.619 z"
             fill="#8b39f7"
             fill-rule="evenodd"
             data-name="Vector"
             id="path838" />
        </g>
        <g
           data-name="#9f31efff"
           id="g844">
          <path
             d="m 336.928,35.742 a 23.753,23.753 0 0 1 1.605,-0.146 c 0.042,0.512 0.086,1.023 0.146,1.533 0.485,0.042 0.973,0.023 1.459,0.06 0.114,0.018 0.23,0.038 0.344,0.058 -0.364,-0.002 -0.729,0.002 -1.092,0.003 -0.615,0.006 -1.23,0.028 -1.84,0.1 -0.135,0.017 -0.27,0.034 -0.404,0.053 -0.067,-0.554 -0.142,-1.108 -0.218,-1.661 z"
             fill="#9f31ef"
             fill-rule="evenodd"
             data-name="Vector"
             id="path842" />
        </g>
        <g
           data-name="#a92ce9ff"
           id="g848">
          <path
             d="m 335.092,36.07 c 0.607,-0.135 1.22,-0.243 1.837,-0.328 0.076,0.553 0.15,1.107 0.218,1.66 -0.48,0.067 -0.958,0.14 -1.43,0.243 -0.388,-0.438 -0.502,-1.021 -0.625,-1.574 z"
             fill="#a92ce9"
             fill-rule="evenodd"
             data-name="Vector"
             id="path846" />
        </g>
        <g
           data-name="#823efaff"
           id="g852">
          <path
             d="m 341.841,37.37 c -0.382,-0.476 -0.28,-1.163 -0.062,-1.69 a 23.09,23.09 0 0 1 1.577,0.233 10.6,10.6 0 0 0 -0.109,1.676 c -0.468,-0.077 -0.935,-0.16 -1.406,-0.22 z"
             fill="#823efa"
             fill-rule="evenodd"
             data-name="Vector"
             id="path850" />
        </g>
        <g
           data-name="#7643feff"
           id="g856">
          <path
             d="m 343.357,35.913 c 0.985,0.186 1.954,0.445 2.9,0.777 a 11.31,11.31 0 0 0 -0.416,1.629 29.6,29.6 0 0 0 -0.593,-0.196 17.487,17.487 0 0 0 -2,-0.534 c -0.01,-0.56 0.03,-1.12 0.109,-1.676 z"
             fill="#7643fe"
             fill-rule="evenodd"
             data-name="Vector"
             id="path854" />
        </g>
        <g
           data-name="#b227e4ff"
           id="g860">
          <path
             d="m 333.712,36.451 c 0.445,-0.167 0.918,-0.258 1.38,-0.38 0.122,0.553 0.237,1.136 0.624,1.575 -0.162,0.034 -0.322,0.072 -0.482,0.112 -0.266,0.067 -0.531,0.138 -0.794,0.216 -0.342,-0.428 -0.769,-0.773 -0.903,-1.307 z"
             fill="#b227e4"
             fill-rule="evenodd"
             data-name="Vector"
             id="path858" />
        </g>
        <g
           data-name="#bc22dfff"
           id="g864">
          <path
             d="m 332.326,36.923 c 0.43,-0.143 0.919,-0.391 1.372,-0.457 0.2,0.457 0.4,1.079 0.742,1.507 -0.505,0.16 -1.012,0.32 -1.508,0.505 a 38.07,38.07 0 0 0 -0.606,-1.555 z"
             fill="#bc22df"
             fill-rule="evenodd"
             data-name="Vector"
             id="path862" />
        </g>
        <g
           data-name="#664affff"
           id="g868">
          <path
             d="m 346.258,36.69 c 1.13,0.4 2.226,0.895 3.27,1.485 -0.275,0.488 -0.531,0.986 -0.78,1.487 -0.737,-0.406 -1.479,-0.81 -2.265,-1.111 a 24.354,24.354 0 0 0 -0.642,-0.233 c 0.09,-0.554 0.246,-1.094 0.417,-1.629 z"
             fill="#664aff"
             fill-rule="evenodd"
             data-name="Vector"
             id="path866" />
        </g>
        <g
           data-name="#c41ed9ff"
           id="g872">
          <path
             d="m 330.965,37.507 c 0.449,-0.206 0.902,-0.404 1.36,-0.584 0.213,0.513 0.416,1.032 0.607,1.555 a 23.505,23.505 0 0 0 -1.26,0.541 c -0.34,-0.447 -0.553,-0.968 -0.704,-1.505 z"
             fill="#c41ed9"
             fill-rule="evenodd"
             data-name="Vector"
             id="path870" />
        </g>
        <g
           data-name="#e533f3ff"
           id="g876">
          <path
             d="m 337.55,37.35 a 17.09,17.09 0 0 1 1.841,-0.1 c 0.174,0.987 0.084,1.99 0.153,2.984 0.135,1.246 0.062,2.5 0.07,3.752 -0.09,0 -0.269,0 -0.358,0.002 a 10.54,10.54 0 0 0 -1.23,0.101 c 0.318,-0.384 0.092,-0.88 0.04,-1.316 -0.328,-1.79 -0.334,-3.616 -0.515,-5.423 z"
             fill="#e533f3"
             fill-rule="evenodd"
             data-name="Vector"
             id="path874" />
        </g>
        <g
           data-name="#d539f8ff"
           id="g880">
          <path
             d="m 339.39,37.249 c 0.364,-0.001 0.728,-0.005 1.092,-0.003 0.453,0.043 0.907,0.079 1.36,0.122 0.125,0.191 0.222,0.406 0.2,0.64 -0.025,0.77 -0.133,1.533 -0.166,2.303 -0.11,1.081 -0.033,2.169 -0.053,3.254 0.002,0.21 -0.07,0.407 -0.143,0.599 a 8.397,8.397 0 0 0 -0.781,-0.116 12.004,12.004 0 0 0 -1.285,-0.063 c -0.009,-1.251 0.064,-2.506 -0.07,-3.752 -0.07,-0.995 0.02,-1.997 -0.153,-2.984 z"
             fill="#d539f8"
             fill-rule="evenodd"
             data-name="Vector"
             id="path878" />
        </g>
        <g
           data-name="#f12ceeff"
           id="g884">
          <path
             d="m 335.717,37.644 c 0.472,-0.102 0.95,-0.176 1.43,-0.242 l 0.404,-0.052 c 0.181,1.807 0.187,3.633 0.516,5.423 0.051,0.435 0.277,0.931 -0.04,1.316 -0.277,0.035 -0.553,0.079 -0.826,0.133 -0.196,0.04 -0.39,0.087 -0.582,0.137 a 11.78,11.78 0 0 0 -0.448,-1.626 c -0.173,-0.488 -0.182,-1.01 -0.232,-1.519 -0.052,-0.586 -0.32,-1.124 -0.398,-1.705 -0.089,-0.587 -0.171,-1.174 -0.307,-1.753 0.16,-0.04 0.32,-0.078 0.483,-0.112 z"
             fill="#f12cee"
             fill-rule="evenodd"
             data-name="Vector"
             id="path882" />
        </g>
        <g
           data-name="#c73ffbff"
           id="g888">
          <path
             d="m 341.842,37.368 c 0.471,0.06 0.938,0.143 1.406,0.22 -0.026,0.675 -0.111,1.346 -0.109,2.021 10e-4,0.824 -0.173,1.639 -0.115,2.464 0.046,0.795 -0.06,1.587 -0.153,2.376 a 11.317,11.317 0 0 0 -1.191,-0.285 c 0.073,-0.192 0.145,-0.39 0.143,-0.6 0.02,-1.085 -0.057,-2.172 0.054,-3.253 0.033,-0.77 0.14,-1.534 0.166,-2.302 0.021,-0.235 -0.076,-0.45 -0.2,-0.64 z"
             fill="#c73ffb"
             fill-rule="evenodd"
             data-name="Vector"
             id="path886" />
        </g>
        <g
           data-name="#d217d0ff"
           id="g892">
          <path
             d="m 328.481,38.915 a 19.206,19.206 0 0 1 2.487,-1.4 c 0.15,0.536 0.364,1.057 0.703,1.505 -0.76,0.365 -1.499,0.772 -2.208,1.23 a 9.985,9.985 0 0 0 -0.175,0.116 c -0.259,-0.49 -0.531,-0.97 -0.807,-1.451 z"
             fill="#d217d0"
             fill-rule="evenodd"
             data-name="Vector"
             id="path890" />
        </g>
        <g
           data-name="#b943fdff"
           id="g896">
          <path
             d="m 343.248,37.588 c 0.678,0.133 1.344,0.322 2,0.535 0.002,0.39 0.019,0.782 -0.033,1.17 -0.053,0.397 -0.218,0.77 -0.263,1.17 -0.116,1.546 -0.138,3.1 -0.336,4.64 a 10.94,10.94 0 0 0 -1.222,-0.485 c -0.174,-0.06 -0.348,-0.116 -0.523,-0.17 0.094,-0.788 0.199,-1.58 0.153,-2.375 -0.058,-0.825 0.116,-1.64 0.115,-2.464 -0.002,-0.675 0.083,-1.347 0.109,-2.021 z"
             fill="#b943fd"
             fill-rule="evenodd"
             data-name="Vector"
             id="path894" />
        </g>
        <g
           data-name="#ff23e7ff"
           id="g900">
          <path
             d="m 334.44,37.973 c 0.263,-0.077 0.528,-0.149 0.794,-0.216 0.135,0.578 0.218,1.165 0.306,1.752 0.078,0.582 0.346,1.12 0.399,1.706 0.05,0.509 0.058,1.03 0.231,1.519 0.187,0.531 0.34,1.073 0.449,1.625 a 11.757,11.757 0 0 0 -1.542,0.534 5.324,5.324 0 0 1 -0.37,-0.838 c -0.185,-0.552 -0.562,-1.009 -0.8,-1.536 -0.309,-0.667 -0.785,-1.243 -1.052,-1.93 -0.233,-0.596 -0.5,-1.179 -0.79,-1.75 0.288,-0.125 0.575,-0.248 0.867,-0.36 0.497,-0.185 1.003,-0.345 1.508,-0.506 z"
             fill="#ff23e7"
             fill-rule="evenodd"
             data-name="Vector"
             id="path898" />
        </g>
        <g
           data-name="#8a40f1ff"
           id="g904">
          <path
             d="m 358.389,38.01 c 0.762,-0.01 1.525,-0.012 2.288,-0.025 0.52,0.905 0.865,1.901 1.086,2.92 -0.77,-0.004 -1.537,0.003 -2.306,-0.006 a 7.175,7.175 0 0 0 -1.068,-2.89 z"
             fill="#8a40f1"
             fill-rule="evenodd"
             data-name="Vector"
             id="path902" />
        </g>
        <g
           data-name="#ac48ffff"
           id="g908">
          <path
             d="m 345.249,38.123 a 24.367,24.367 0 0 1 1.235,0.428 c -0.064,0.786 -0.273,1.553 -0.245,2.347 -0.19,0.992 -0.184,2.01 -0.415,2.996 -0.11,0.571 -0.168,1.15 -0.26,1.725 a 15.053,15.053 0 0 0 -0.948,-0.515 c 0.198,-1.54 0.22,-3.095 0.336,-4.641 0.046,-0.4 0.21,-0.772 0.264,-1.17 0.05,-0.388 0.034,-0.78 0.033,-1.17 z"
             fill="#ac48ff"
             fill-rule="evenodd"
             data-name="Vector"
             id="path906" />
        </g>
        <g
           data-name="#5750ffff"
           id="g912">
          <path
             d="m 348.747,39.662 c 0.25,-0.501 0.506,-1 0.78,-1.487 0.765,0.442 1.508,0.924 2.211,1.46 -0.304,0.452 -0.59,0.92 -0.823,1.412 l -0.026,0.067 a 12.912,12.912 0 0 0 -1.688,-1.193 c -0.15,-0.089 -0.302,-0.174 -0.454,-0.26 z"
             fill="#5750ff"
             fill-rule="evenodd"
             data-name="Vector"
             id="path910" />
        </g>
        <g
           data-name="#994dffff"
           id="g916">
          <path
             d="m 346.483,38.553 c 0.786,0.302 1.527,0.705 2.264,1.11 0.152,0.086 0.304,0.172 0.454,0.26 a 15.61,15.61 0 0 0 -0.15,1.7 c -0.031,0.908 -0.311,1.784 -0.361,2.691 -0.023,0.634 -0.392,1.185 -0.454,1.81 -0.05,0.487 -0.106,0.972 -0.207,1.452 a 15.569,15.569 0 0 0 -0.417,-0.423 10.69,10.69 0 0 0 -1.461,-1.15 c -0.195,-0.13 -0.389,-0.26 -0.588,-0.383 0.092,-0.574 0.151,-1.153 0.261,-1.724 0.23,-0.987 0.225,-2.005 0.414,-2.996 -0.027,-0.794 0.182,-1.562 0.245,-2.347 z"
             fill="#994dff"
             fill-rule="evenodd"
             data-name="Vector"
             id="path914" />
        </g>
        <g
           data-name="#ff19e0ff"
           id="g920">
          <path
             d="m 331.67,39.018 c 0.131,-0.062 0.262,-0.121 0.395,-0.18 0.29,0.57 0.556,1.154 0.79,1.75 0.266,0.687 0.743,1.263 1.051,1.93 0.239,0.527 0.616,0.984 0.8,1.536 0.1,0.289 0.222,0.57 0.37,0.838 a 12.918,12.918 0 0 0 -1.771,0.938 c -0.305,-0.519 -0.715,-0.965 -1.022,-1.483 -0.271,-0.455 -0.74,-0.764 -0.963,-1.252 -0.305,-0.639 -0.492,-1.367 -1.032,-1.863 -0.32,-0.288 -0.634,-0.59 -0.825,-0.984 0.71,-0.457 1.448,-0.865 2.208,-1.23 z"
             fill="#ff19e0"
             fill-rule="evenodd"
             data-name="Vector"
             id="path918" />
        </g>
        <g
           data-name="#e20ec4ff"
           id="g924">
          <path
             d="m 326.46,40.456 a 19.862,19.862 0 0 1 2.022,-1.543 c 0.276,0.48 0.548,0.962 0.807,1.452 -0.63,0.445 -1.255,0.898 -1.83,1.413 a 10.72,10.72 0 0 1 -0.999,-1.322 z"
             fill="#e20ec4"
             fill-rule="evenodd"
             data-name="Vector"
             id="path922" />
        </g>
        <g
           data-name="#4a54ffff"
           id="g928">
          <path
             d="m 350.914,41.047 c 0.234,-0.492 0.52,-0.96 0.824,-1.412 1.048,0.8 2.03,1.688 2.899,2.68 -0.448,0.358 -0.784,0.827 -1.057,1.327 -0.188,-0.206 -0.379,-0.407 -0.57,-0.609 -0.655,-0.706 -1.368,-1.355 -2.096,-1.986 z"
             fill="#4a54ff"
             fill-rule="evenodd"
             data-name="Vector"
             id="path926" />
        </g>
        <g
           data-name="#8452ffff"
           id="g932">
          <path
             d="m 349.201,39.923 c 0.598,0.347 1.154,0.756 1.688,1.193 -0.142,0.715 -0.109,1.453 -0.257,2.167 -0.104,0.481 -0.168,0.97 -0.222,1.459 -0.064,0.66 -0.414,1.25 -0.466,1.912 -0.082,0.924 -0.295,1.828 -0.49,2.732 a 15.85,15.85 0 0 0 -0.289,-0.444 c -0.335,-0.491 -0.734,-0.933 -1.136,-1.367 0.101,-0.479 0.157,-0.964 0.207,-1.451 0.062,-0.626 0.431,-1.176 0.454,-1.81 0.05,-0.907 0.33,-1.784 0.36,-2.692 0.019,-0.569 0.071,-1.136 0.151,-1.7 z"
             fill="#8452ff"
             fill-rule="evenodd"
             data-name="Vector"
             id="path930" />
        </g>
        <g
           data-name="#ff0ed6ff"
           id="g936">
          <path
             d="m 329.288,40.365 c 0.058,-0.039 0.116,-0.079 0.175,-0.117 0.191,0.394 0.505,0.696 0.825,0.984 0.54,0.496 0.727,1.224 1.033,1.864 0.223,0.487 0.69,0.796 0.962,1.252 0.308,0.517 0.717,0.963 1.022,1.482 a 13.477,13.477 0 0 0 -1.329,1.002 9.879,9.879 0 0 0 -0.795,0.743 c -0.388,-0.562 -1.003,-0.93 -1.325,-1.54 -0.193,-0.375 -0.643,-0.49 -0.885,-0.824 -0.34,-0.454 -0.89,-0.657 -1.272,-1.063 -0.432,-0.45 -0.932,-0.834 -1.3,-1.34 0.352,-0.343 0.7,-0.692 1.06,-1.03 0.574,-0.514 1.2,-0.967 1.829,-1.413 z"
             fill="#ff0ed6"
             fill-rule="evenodd"
             data-name="Vector"
             id="path934" />
        </g>
        <g
           data-name="#f306b8ff"
           id="g940">
          <path
             d="m 324.471,42.435 a 17.376,17.376 0 0 1 1.99,-1.976 c 0.3,0.464 0.63,0.908 0.998,1.321 -0.359,0.338 -0.707,0.687 -1.06,1.03 -0.275,0.275 -0.543,0.555 -0.794,0.85 -0.328,-0.45 -0.69,-0.883 -1.134,-1.225 z"
             fill="#f306b8"
             fill-rule="evenodd"
             data-name="Vector"
             id="path938" />
        </g>
        <g
           data-name="#8345f3ff"
           id="g944">
          <path
             d="m 359.457,40.898 c 0.77,0.009 1.537,0.003 2.307,0.006 0.186,0.977 0.25,1.982 0.233,2.975 -0.841,0.02 -1.682,0.004 -2.522,-0.004 0.115,-0.988 0.121,-1.99 -0.018,-2.977 z"
             fill="#8345f3"
             fill-rule="evenodd"
             data-name="Vector"
             id="path942" />
        </g>
        <g
           data-name="#7155ffff"
           id="g948">
          <path
             d="m 350.889,41.116 0.025,-0.067 c 0.728,0.63 1.441,1.28 2.097,1.986 -0.059,0.618 -0.422,1.161 -0.43,1.789 -0.028,0.828 -0.291,1.626 -0.32,2.455 -0.022,0.6 -0.396,1.12 -0.405,1.721 -0.022,0.55 -0.032,1.1 -0.084,1.647 -0.12,0.008 -0.238,0.014 -0.357,0.02 -0.222,0.002 -0.443,0.007 -0.664,0.006 l -0.556,-0.008 c -0.263,-0.416 -0.489,-0.856 -0.74,-1.28 0.193,-0.903 0.406,-1.807 0.488,-2.73 0.053,-0.662 0.403,-1.254 0.466,-1.913 0.054,-0.49 0.119,-0.978 0.222,-1.46 0.149,-0.713 0.116,-1.45 0.258,-2.166 z"
             fill="#7155ff"
             fill-rule="evenodd"
             data-name="Vector"
             id="path946" />
        </g>
        <g
           data-name="#3858ffff"
           id="g952">
          <path
             d="m 353.58,43.644 c 0.273,-0.5 0.61,-0.969 1.057,-1.328 a 20.481,20.481 0 0 1 2.599,3.677 c -0.455,0.389 -0.894,0.8 -1.241,1.29 -0.367,-0.703 -0.721,-1.417 -1.204,-2.049 -0.385,-0.544 -0.76,-1.098 -1.21,-1.59 z"
             fill="#3858ff"
             fill-rule="evenodd"
             data-name="Vector"
             id="path950" />
        </g>
        <g
           data-name="#ff03acff"
           id="g956">
          <path
             d="m 324.471,42.434 c 0.444,0.342 0.806,0.774 1.133,1.226 -0.34,0.413 -0.66,0.84 -0.982,1.266 -0.368,-0.518 -1.017,-0.584 -1.597,-0.644 0.449,-0.641 0.924,-1.266 1.446,-1.848 z"
             fill="#ff03ac"
             fill-rule="evenodd"
             data-name="Vector"
             id="path954" />
        </g>
        <g
           data-name="#ff03c8ff"
           id="g960">
          <path
             d="m 325.604,43.661 c 0.25,-0.295 0.519,-0.576 0.794,-0.85 0.369,0.505 0.869,0.89 1.3,1.339 0.383,0.406 0.933,0.61 1.272,1.063 0.243,0.334 0.692,0.45 0.886,0.824 0.321,0.61 0.937,0.978 1.324,1.54 l -0.072,0.078 c -0.472,0.55 -0.983,1.077 -1.345,1.709 l -0.108,0.185 c -0.637,-0.223 -1.297,-0.356 -1.954,-0.502 -0.933,-0.365 -1.943,-0.415 -2.92,-0.586 -0.707,0.014 -1.407,-0.123 -2.115,-0.075 0.058,-0.131 0.119,-0.26 0.18,-0.388 0.254,-0.529 0.51,-1.056 0.805,-1.563 0.304,-0.514 0.614,-1.027 0.97,-1.508 0.321,-0.426 0.643,-0.853 0.983,-1.266 z"
             fill="#ff03c8"
             fill-rule="evenodd"
             data-name="Vector"
             id="path958" />
        </g>
        <g
           data-name="#5b58ffff"
           id="g964">
          <path
             d="m 353.011,43.033 c 0.19,0.202 0.382,0.404 0.57,0.61 0.45,0.492 0.825,1.046 1.21,1.59 -0.035,0.405 -0.042,0.813 -0.069,1.22 -0.025,0.558 -0.395,1.033 -0.412,1.595 -0.04,0.841 -0.114,1.689 -0.359,2.499 -0.724,0.079 -1.453,0.06 -2.179,0.098 0.053,-0.547 0.062,-1.097 0.085,-1.647 0.008,-0.602 0.382,-1.121 0.403,-1.721 0.03,-0.828 0.293,-1.627 0.322,-2.455 0.007,-0.628 0.37,-1.17 0.43,-1.789 z"
             fill="#5b58ff"
             fill-rule="evenodd"
             data-name="Vector"
             id="path962" />
        </g>
        <g
           data-name="#7c4bf4ff"
           id="g968">
          <path
             d="m 359.475,43.876 c 0.84,0.007 1.681,0.023 2.523,0.004 a 17.925,17.925 0 0 1 -0.267,2.661 c -0.9,0.006 -1.899,0.046 -2.798,0.012 0.04,-0.16 0.096,-0.3 0.128,-0.438 0.176,-0.738 0.294,-1.489 0.414,-2.239 z"
             fill="#7c4bf4"
             fill-rule="evenodd"
             data-name="Vector"
             id="path966" />
        </g>
        <g
           data-name="#9f32eaff"
           id="g972">
          <path
             d="m 338.2,44.068 c 0.349,-0.042 0.701,-0.071 1.054,-0.079 0.032,0.558 0.102,1.115 0.22,1.662 -0.322,0.006 -0.643,0.028 -0.964,0.06 -0.12,-0.543 -0.22,-1.092 -0.31,-1.643 z"
             fill="#9f32ea"
             fill-rule="evenodd"
             data-name="Vector"
             id="path970" />
        </g>
        <g
           data-name="#9436efff"
           id="g976">
          <path
             d="m 339.255,43.987 c 0.09,-0.002 0.269,-0.003 0.359,-0.003 0.429,10e-4 0.858,0.016 1.285,0.063 -0.13,0.032 -0.261,0.065 -0.39,0.102 0.03,0.514 0.06,1.03 0.068,1.545 -0.367,-0.034 -0.735,-0.049 -1.102,-0.046 a 10.761,10.761 0 0 1 -0.22,-1.661 z"
             fill="#9436ef"
             fill-rule="evenodd"
             data-name="Vector"
             id="path974" />
        </g>
        <g
           data-name="#aa2ce4ff"
           id="g980">
          <path
             d="m 337.2,44.222 a 11.977,11.977 0 0 1 1,-0.156 c 0.09,0.551 0.19,1.1 0.31,1.644 -0.341,0.036 -0.68,0.09 -1.016,0.16 -0.165,-0.535 -0.345,-1.08 -0.294,-1.648 z"
             fill="#aa2ce4"
             fill-rule="evenodd"
             data-name="Vector"
             id="path978" />
        </g>
        <g
           data-name="#893bf4ff"
           id="g984">
          <path
             d="m 340.51,44.151 c 0.128,-0.036 0.259,-0.07 0.389,-0.101 0.262,0.023 0.522,0.068 0.78,0.116 0.048,0.01 0.14,0.028 0.187,0.036 -0.06,0.555 -0.116,1.11 -0.17,1.665 -0.37,-0.074 -0.744,-0.133 -1.119,-0.17 -0.007,-0.516 -0.038,-1.031 -0.067,-1.546 z"
             fill="#893bf4"
             fill-rule="evenodd"
             data-name="Vector"
             id="path982" />
        </g>
        <g
           data-name="#b527deff"
           id="g988">
          <path
             d="m 336.619,44.36 c 0.192,-0.05 0.385,-0.097 0.58,-0.137 -0.05,0.567 0.13,1.113 0.295,1.648 -0.331,0.071 -0.658,0.159 -0.98,0.261 -0.176,-0.527 -0.496,-1.02 -0.504,-1.59 0.2,-0.065 0.404,-0.128 0.609,-0.183 z"
             fill="#b527de"
             fill-rule="evenodd"
             data-name="Vector"
             id="path986" />
        </g>
        <g
           data-name="#7c41f8ff"
           id="g992">
          <path
             d="m 341.866,44.2 a 11.32,11.32 0 0 1 1.528,0.418 c -0.09,0.55 -0.22,1.091 -0.378,1.626 a 10.513,10.513 0 0 0 -1.319,-0.38 c 0.053,-0.555 0.109,-1.11 0.169,-1.665 z"
             fill="#7c41f8"
             fill-rule="evenodd"
             data-name="Vector"
             id="path990" />
        </g>
        <g
           data-name="#ff01a2ff"
           id="g996">
          <path
             d="m 323.025,44.283 c 0.58,0.06 1.23,0.126 1.597,0.644 -0.356,0.481 -0.666,0.993 -0.97,1.508 -0.22,-0.196 -0.425,-0.42 -0.697,-0.542 -0.276,-0.1 -0.577,-0.091 -0.865,-0.116 0.29,-0.51 0.605,-1.008 0.935,-1.494 z"
             fill="#ff01a2"
             fill-rule="evenodd"
             data-name="Vector"
             id="path994" />
        </g>
        <g
           data-name="#c121d7ff"
           id="g1000">
          <path
             d="m 335.075,44.892 c 0.307,-0.129 0.619,-0.245 0.934,-0.351 0.007,0.571 0.328,1.063 0.503,1.59 -0.361,0.118 -0.712,0.263 -1.058,0.419 a 18.867,18.867 0 0 0 -0.685,-1.522 c 0.101,-0.047 0.203,-0.092 0.306,-0.136 z"
             fill="#c121d7"
             fill-rule="evenodd"
             data-name="Vector"
             id="path998" />
        </g>
        <g
           data-name="#7046fcff"
           id="g1004">
          <path
             d="m 343.394,44.618 c 0.414,0.142 0.826,0.295 1.222,0.486 l 0.209,0.105 a 9.446,9.446 0 0 0 -0.568,1.583 c -0.402,-0.209 -0.815,-0.394 -1.242,-0.547 0.157,-0.535 0.289,-1.077 0.379,-1.627 z"
             fill="#7046fc"
             fill-rule="evenodd"
             data-name="Vector"
             id="path1002" />
        </g>
        <g
           data-name="#cc1bcfff"
           id="g1008">
          <path
             d="m 333.706,45.583 c 0.346,-0.2 0.7,-0.39 1.064,-0.557 0.252,0.497 0.477,1.006 0.685,1.522 -0.29,0.132 -0.575,0.274 -0.85,0.433 a 12.19,12.19 0 0 1 -0.899,-1.398 z"
             fill="#cc1bcf"
             fill-rule="evenodd"
             data-name="Vector"
             id="path1006" />
        </g>
        <g
           data-name="#644bffff"
           id="g1012">
          <path
             d="m 344.257,46.795 a 9.445,9.445 0 0 1 0.568,-1.583 c 0.249,0.13 0.497,0.265 0.738,0.409 0.199,0.121 0.393,0.252 0.587,0.382 -0.23,0.513 -0.463,1.025 -0.69,1.54 -0.385,-0.274 -0.785,-0.53 -1.203,-0.748 z"
             fill="#644bff"
             fill-rule="evenodd"
             data-name="Vector"
             id="path1010" />
        </g>
        <g
           data-name="#485bffff"
           id="g1016">
          <path
             d="m 354.791,45.234 c 0.483,0.632 0.838,1.346 1.204,2.05 0.374,0.578 -0.003,1.21 -0.015,1.824 -0.017,0.495 -0.046,0.992 -0.177,1.472 -0.767,0.099 -1.541,0.085 -2.312,0.132 -0.692,0.025 -1.386,0.04 -2.075,-0.045 l 0.357,-0.02 c 0.725,-0.039 1.455,-0.02 2.179,-0.099 0.244,-0.81 0.318,-1.657 0.359,-2.498 0.017,-0.563 0.386,-1.037 0.412,-1.596 0.027,-0.406 0.033,-0.814 0.068,-1.22 z"
             fill="#485bff"
             fill-rule="evenodd"
             data-name="Vector"
             id="path1014" />
        </g>
        <g
           data-name="#d717c7ff"
           id="g1020">
          <path
             d="m 333.306,45.83 c 0.131,-0.084 0.265,-0.166 0.4,-0.245 0.265,0.488 0.57,0.95 0.898,1.397 -0.292,0.172 -0.577,0.354 -0.853,0.552 a 31.24,31.24 0 0 0 -0.88,-1.405 c 0.143,-0.103 0.287,-0.204 0.435,-0.299 z"
             fill="#d717c7"
             fill-rule="evenodd"
             data-name="Vector"
             id="path1018" />
        </g>
        <g
           data-name="#ff0098ff"
           id="g1024">
          <path
             d="m 321.232,47.475 a 22.36,22.36 0 0 1 0.858,-1.698 c 0.289,0.025 0.589,0.015 0.865,0.116 0.272,0.122 0.478,0.345 0.697,0.542 a 22.475,22.475 0 0 0 -0.806,1.562 c -0.51,-0.248 -1.035,-0.495 -1.614,-0.522 z"
             fill="#ff0098"
             fill-rule="evenodd"
             data-name="Vector"
             id="path1022" />
        </g>
        <g
           data-name="#594fffff"
           id="g1028">
          <path
             d="m 346.15,46 c 0.516,0.346 1.013,0.72 1.462,1.15 -0.294,0.497 -0.581,0.996 -0.873,1.494 a 9.543,9.543 0 0 0 -1.28,-1.104 c 0.228,-0.514 0.461,-1.027 0.692,-1.54 z"
             fill="#594fff"
             fill-rule="evenodd"
             data-name="Vector"
             id="path1026" />
        </g>
        <g
           data-name="#2e5cffff"
           id="g1032">
          <path
             d="m 355.995,47.282 c 0.347,-0.49 0.786,-0.902 1.241,-1.29 0.408,0.795 0.853,1.59 1.102,2.452 -0.052,0.151 -0.11,0.302 -0.167,0.452 a 29.85,29.85 0 0 1 -1.57,3.438 c -1.172,0.003 -2.344,0 -3.516,0.003 0.33,-0.478 0.34,-1.071 0.406,-1.627 0.77,-0.047 1.545,-0.033 2.312,-0.132 0.131,-0.48 0.16,-0.977 0.177,-1.472 0.012,-0.614 0.389,-1.246 0.015,-1.824 z"
             fill="#2e5cff"
             fill-rule="evenodd"
             data-name="Vector"
             id="path1030" />
        </g>
        <g
           data-name="#e010bfff"
           id="g1036">
          <path
             d="m 331.977,46.834 c 0.289,-0.246 0.587,-0.482 0.894,-0.703 0.307,0.46 0.598,0.928 0.88,1.404 -0.258,0.187 -0.508,0.385 -0.747,0.595 a 25.532,25.532 0 0 1 -1.027,-1.296 z"
             fill="#e010bf"
             fill-rule="evenodd"
             data-name="Vector"
             id="path1034" />
        </g>
        <g
           data-name="#764ff5ff"
           id="g1040">
          <path
             d="m 358.932,46.552 c 0.03,-0.005 0.07,-0.012 0.101,-0.019 0.9,0.034 1.798,0.014 2.697,0.008 a 28.363,28.363 0 0 1 -0.537,2.36 75.12,75.12 0 0 1 -3.023,-0.003 c 0.058,-0.15 0.116,-0.3 0.168,-0.452 0.216,-0.621 0.434,-1.253 0.594,-1.894 z"
             fill="#764ff5"
             fill-rule="evenodd"
             data-name="Vector"
             id="path1038" />
        </g>
        <g
           data-name="#ea0cb6ff"
           id="g1044">
          <path
             d="m 331.181,47.574 c 0.248,-0.266 0.52,-0.506 0.796,-0.743 0.331,0.44 0.668,0.877 1.027,1.296 a 13.87,13.87 0 0 0 -0.819,0.806 c -0.35,-0.435 -0.727,-0.847 -1.076,-1.281 z"
             fill="#ea0cb6"
             fill-rule="evenodd"
             data-name="Vector"
             id="path1042" />
        </g>
        <g
           data-name="#4d53ffff"
           id="g1048">
          <path
             d="m 346.74,48.643 c 0.292,-0.498 0.579,-0.997 0.873,-1.494 0.14,0.138 0.28,0.279 0.416,0.423 0.403,0.433 0.801,0.875 1.137,1.366 -0.434,0.453 -0.715,1.017 -0.965,1.585 a 10.014,10.014 0 0 0 -1.46,-1.88 z"
             fill="#4d53ff"
             fill-rule="evenodd"
             data-name="Vector"
             id="path1046" />
        </g>
        <g
           data-name="#ff008eff"
           id="g1052">
          <path
             d="m 321.233,47.475 c 0.579,0.026 1.103,0.273 1.614,0.522 a 15.795,15.795 0 0 0 -0.7,1.728 c -0.495,-0.297 -1.079,-0.325 -1.636,-0.39 0.212,-0.63 0.456,-1.25 0.722,-1.86 z"
             fill="#ff008e"
             fill-rule="evenodd"
             data-name="Vector"
             id="path1050" />
        </g>
        <g
           data-name="#f806aaff"
           id="g1056">
          <path
             d="m 329.763,49.362 c 0.362,-0.632 0.873,-1.159 1.345,-1.709 0.35,0.435 0.726,0.847 1.076,1.281 -0.393,0.426 -0.739,0.892 -1.05,1.38 a 7.918,7.918 0 0 0 -1.371,-0.952 z"
             fill="#f806aa"
             fill-rule="evenodd"
             data-name="Vector"
             id="path1054" />
        </g>
        <g
           data-name="#ff00b9ff"
           id="g1060">
          <path
             d="m 322.667,48.383 c 0.708,-0.048 1.408,0.089 2.115,0.075 0.977,0.17 1.986,0.221 2.92,0.586 0.657,0.146 1.317,0.28 1.954,0.503 -0.464,0.805 -0.916,1.63 -1.185,2.524 a 9.706,9.706 0 0 0 -0.133,0.457 c -0.638,-0.174 -1.296,-0.075 -1.944,-0.047 -0.511,0.03 -0.998,0.231 -1.515,0.217 -0.545,-0.01 -1.072,0.133 -1.587,0.297 -0.692,0.198 -1.32,0.578 -2.023,0.74 0.098,-0.7 0.177,-1.403 0.347,-2.09 0.14,-0.65 0.312,-1.295 0.53,-1.922 0.157,-0.453 0.323,-0.903 0.52,-1.34 z"
             fill="#ff00b9"
             fill-rule="evenodd"
             data-name="Vector"
             id="path1058" />
        </g>
        <g
           data-name="#6c55f6ff"
           id="g1064">
          <path
             d="m 358.17,48.898 c 1.008,0.023 2.016,0.022 3.023,0.004 -0.373,1.36 -0.875,2.679 -1.435,3.97 h -0.017 c -1.134,-0.029 -2.268,0.02 -3.4,-0.05 l 0.26,-0.486 c 0.6,-1.11 1.116,-2.261 1.57,-3.438 z"
             fill="#6c55f6"
             fill-rule="evenodd"
             data-name="Vector"
             id="path1062" />
        </g>
        <g
           data-name="#4056ffff"
           id="g1068">
          <path
             d="m 348.2,50.525 c 0.25,-0.567 0.532,-1.132 0.965,-1.585 0.098,0.147 0.196,0.294 0.29,0.444 0.252,0.424 0.477,0.864 0.74,1.28 l 0.556,0.008 a 10.365,10.365 0 0 0 -0.998,1.666 26.929,26.929 0 0 1 -0.721,-0.013 8.895,8.895 0 0 0 -0.831,-1.8 z"
             fill="#4056ff"
             fill-rule="evenodd"
             data-name="Vector"
             id="path1066" />
        </g>
        <g
           data-name="#ff0084ff"
           id="g1072">
          <path
             d="m 320.51,49.335 c 0.558,0.065 1.141,0.093 1.636,0.39 a 16.559,16.559 0 0 0 -0.53,1.922 c -0.333,-0.535 -1.072,-0.404 -1.608,-0.525 0.14,-0.603 0.31,-1.199 0.502,-1.787 z"
             fill="#ff0084"
             fill-rule="evenodd"
             data-name="Vector"
             id="path1070" />
        </g>
        <g
           data-name="#ff0395ff"
           id="g1076">
          <path
             d="m 329.657,49.549 0.107,-0.186 c 0.49,0.268 0.948,0.587 1.37,0.952 -0.457,0.723 -0.813,1.51 -1.081,2.32 a 9.539,9.539 0 0 0 -1.581,-0.562 c 0.27,-0.894 0.721,-1.718 1.185,-2.524 z"
             fill="#ff0395"
             fill-rule="evenodd"
             data-name="Vector"
             id="path1074" />
        </g>
        <g
           data-name="#375affff"
           id="g1080">
          <path
             d="m 350.751,50.672 c 0.221,0.001 0.443,-0.003 0.665,-0.005 0.689,0.084 1.383,0.07 2.075,0.045 -0.066,0.556 -0.076,1.15 -0.406,1.627 -1.11,0 -2.222,-0.004 -3.332,0 0.273,-0.59 0.62,-1.14 0.998,-1.667 z"
             fill="#375aff"
             fill-rule="evenodd"
             data-name="Vector"
             id="path1078" />
        </g>
        <g
           data-name="#ff0079ff"
           id="g1084">
          <path
             d="m 320.009,51.122 c 0.535,0.122 1.274,-0.01 1.607,0.525 -0.17,0.688 -0.249,1.39 -0.347,2.091 a 2.557,2.557 0 0 0 -0.01,0.09 66.976,66.976 0 0 0 -1.656,-0.227 c 0.082,-0.834 0.222,-1.661 0.406,-2.479 z"
             fill="#ff0079"
             fill-rule="evenodd"
             data-name="Vector"
             id="path1082" />
        </g>
        <g
           data-name="#ff0283ff"
           id="g1088">
          <path
             d="m 328.471,52.072 a 9.538,9.538 0 0 1 1.581,0.563 10.09,10.09 0 0 0 -0.32,1.324 c -0.534,-0.158 -1.07,-0.311 -1.604,-0.474 0.06,-0.32 0.128,-0.64 0.21,-0.956 a 9.71,9.71 0 0 1 0.133,-0.457 z"
             fill="#ff0283"
             fill-rule="evenodd"
             data-name="Vector"
             id="path1086" />
        </g>
        <g
           data-name="#ff00a9ff"
           id="g1092">
          <path
             d="m 326.393,52.483 c 0.649,-0.028 1.307,-0.127 1.944,0.047 -0.082,0.316 -0.15,0.635 -0.209,0.956 -0.073,0.415 -0.14,0.833 -0.19,1.252 -0.054,0.395 -0.11,0.789 -0.149,1.186 -0.597,0.346 -1.273,0.525 -1.86,0.891 -0.488,0.301 -1.016,0.53 -1.495,0.849 -0.534,0.35 -1.204,0.516 -1.6,1.052 -0.313,0.444 -0.738,0.783 -1.197,1.066 a 19.737,19.737 0 0 1 -0.307,-1.705 19.605,19.605 0 0 1 -0.163,-2.237 c 0.005,-0.672 0.016,-1.345 0.09,-2.012 l 0.011,-0.09 c 0.704,-0.163 1.331,-0.543 2.024,-0.74 0.514,-0.165 1.042,-0.307 1.587,-0.297 0.517,0.014 1.004,-0.187 1.514,-0.218 z"
             fill="#ff00a9"
             fill-rule="evenodd"
             data-name="Vector"
             id="path1090" />
        </g>
        <g
           data-name="#615df7ff"
           id="g1096">
          <path
             d="m 354.4,56.013 a 41.511,41.511 0 0 0 1.94,-3.192 c 1.133,0.069 2.267,0.02 3.4,0.05 a 33.35,33.35 0 0 1 -1.61,3.224 c -1.241,-0.078 -2.488,0.029 -3.73,-0.082 z"
             fill="#615df7"
             fill-rule="evenodd"
             data-name="Vector"
             id="path1094" />
        </g>
        <g
           data-name="#ff0275ff"
           id="g1100">
          <path
             d="m 328.129,53.486 c 0.534,0.163 1.069,0.316 1.604,0.474 a 10.86,10.86 0 0 0 -0.142,1.556 c -0.55,-0.069 -1.105,-0.097 -1.659,-0.101 0,-0.226 -0.001,-0.452 0.008,-0.677 0.049,-0.42 0.116,-0.836 0.189,-1.252 z"
             fill="#ff0275"
             fill-rule="evenodd"
             data-name="Vector"
             id="path1098" />
        </g>
        <g
           data-name="#ff006dff"
           id="g1104">
          <path
             d="m 319.518,55.759 c -0.013,-0.722 0.005,-1.442 0.084,-2.158 0.552,0.07 1.104,0.142 1.656,0.226 -0.075,0.667 -0.086,1.34 -0.091,2.012 a 9.36,9.36 0 0 1 -1.65,-0.08 z"
             fill="#ff006d"
             fill-rule="evenodd"
             data-name="Vector"
             id="path1102" />
        </g>
        <g
           data-name="#ff059aff"
           id="g1108">
          <path
             d="m 327.79,55.924 c 0.039,-0.397 0.095,-0.79 0.15,-1.186 -0.01,0.225 -0.008,0.45 -0.008,0.677 -0.01,0.811 0.03,1.625 0.176,2.425 0.03,0.15 0.065,0.299 0.101,0.447 -0.69,0.454 -1.512,0.747 -2.056,1.395 -0.557,0.687 -1.398,1.031 -2.091,1.554 -0.597,0.354 -1.083,0.85 -1.542,1.365 a 41.525,41.525 0 0 1 -0.126,-0.328 18.892,18.892 0 0 1 -0.634,-1.96 19.024,19.024 0 0 1 -0.123,-0.53 c 0.46,-0.283 0.884,-0.623 1.197,-1.067 0.396,-0.536 1.066,-0.702 1.6,-1.052 0.479,-0.318 1.007,-0.548 1.496,-0.849 0.586,-0.366 1.262,-0.545 1.86,-0.891 z"
             fill="#ff059a"
             fill-rule="evenodd"
             data-name="Vector"
             id="path1106" />
        </g>
        <g
           data-name="#ff0566ff"
           id="g1112">
          <path
             d="m 327.93,55.413 c 0.555,0.004 1.11,0.032 1.66,0.101 -0.009,0.57 0.036,1.138 0.12,1.702 -0.532,0.185 -1.259,0.103 -1.603,0.622 -0.145,-0.8 -0.186,-1.614 -0.176,-2.425 z"
             fill="#ff0566"
             fill-rule="evenodd"
             data-name="Vector"
             id="path1110" />
        </g>
        <g
           data-name="#ff0062ff"
           id="g1116">
          <path
             d="m 319.518,55.758 a 9.361,9.361 0 0 0 1.649,0.08 c 0.005,0.748 0.072,1.494 0.163,2.237 a 68.575,68.575 0 0 0 -1.69,0.005 16.55,16.55 0 0 1 -0.122,-2.322 z"
             fill="#ff0062"
             fill-rule="evenodd"
             data-name="Vector"
             id="path1114" />
        </g>
        <g
           data-name="#5564f9ff"
           id="g1120">
          <path
             d="m 352.254,58.965 a 46.084,46.084 0 0 0 2.146,-2.951 c 1.242,0.11 2.489,0.004 3.731,0.082 a 49.729,49.729 0 0 1 -2.9,4.465 c -1.407,-0.095 -2.818,-0.017 -4.226,-0.05 0.42,-0.512 0.847,-1.02 1.25,-1.546 z"
             fill="#5564f9"
             fill-rule="evenodd"
             data-name="Vector"
             id="path1118" />
        </g>
        <g
           data-name="#ff0c58ff"
           id="g1124">
          <path
             d="m 328.108,57.838 c 0.344,-0.519 1.072,-0.436 1.603,-0.622 0.072,0.462 0.176,0.919 0.313,1.367 -0.49,0.286 -1.07,0.43 -1.474,0.846 a 16.945,16.945 0 0 1 -0.34,-1.144 c -0.036,-0.148 -0.07,-0.298 -0.102,-0.447 z"
             fill="#ff0c58"
             fill-rule="evenodd"
             data-name="Vector"
             id="path1122" />
        </g>
        <g
           data-name="#ff0158ff"
           id="g1128">
          <path
             d="m 319.64,58.081 c 0.564,-0.008 1.128,-0.01 1.69,-0.005 0.072,0.573 0.186,1.14 0.307,1.706 0.039,0.176 0.08,0.354 0.123,0.53 l -1.67,0.21 c -0.201,-0.802 -0.347,-1.619 -0.45,-2.44 z"
             fill="#ff0158"
             fill-rule="evenodd"
             data-name="Vector"
             id="path1126" />
        </g>
        <g
           data-name="#ff158fff"
           id="g1132">
          <path
             d="m 328.209,58.285 c 0.097,0.387 0.216,0.766 0.34,1.144 0.127,0.38 0.267,0.754 0.435,1.117 0.065,0.135 0.132,0.27 0.201,0.405 -0.849,0.88 -1.739,1.719 -2.54,2.642 -0.433,0.458 -0.927,0.863 -1.287,1.386 -0.277,0.407 -0.585,0.791 -0.933,1.14 a 19.383,19.383 0 0 1 -1.362,-2.308 c -0.195,-0.399 -0.38,-0.8 -0.543,-1.212 0.458,-0.514 0.944,-1.01 1.541,-1.365 0.694,-0.523 1.534,-0.867 2.092,-1.554 0.544,-0.648 1.365,-0.941 2.056,-1.395 z"
             fill="#ff158f"
             fill-rule="evenodd"
             data-name="Vector"
             id="path1130" />
        </g>
        <g
           data-name="#ff164dff"
           id="g1136">
          <path
             d="m 328.55,59.431 c 0.404,-0.417 0.983,-0.56 1.473,-0.846 0.124,0.407 0.278,0.803 0.454,1.189 -0.493,0.265 -0.999,0.509 -1.492,0.774 a 10.737,10.737 0 0 1 -0.436,-1.117 z"
             fill="#ff164d"
             fill-rule="evenodd"
             data-name="Vector"
             id="path1134" />
        </g>
        <g
           data-name="#ffd200ff"
           id="g1140">
          <path
             d="m 348.896,59.355 c 0.072,-0.15 0.118,-0.395 0.332,-0.385 1.008,-0.016 2.017,0.008 3.026,-0.007 -0.403,0.526 -0.83,1.034 -1.25,1.545 -0.49,0.581 -0.994,1.148 -1.508,1.707 -0.556,0.623 -1.152,1.208 -1.736,1.804 a 15.29,15.29 0 0 0 -0.95,-1.42 9.977,9.977 0 0 0 2.086,-3.244 z"
             fill="#ffd200"
             fill-rule="evenodd"
             data-name="Vector"
             id="path1138" />
        </g>
        <g
           data-name="#ffda00ff"
           id="g1144">
          <path
             d="m 358.3,58.966 c 0.378,0.029 0.774,-0.064 1.137,0.07 -0.326,1.786 -0.835,3.552 -1.647,5.18 -0.862,1.911 -2.088,3.644 -3.504,5.184 -0.341,-1.146 -1.15,-2.042 -1.922,-2.92 a 52.265,52.265 0 0 0 5.937,-7.514 z"
             fill="#ffda00"
             fill-rule="evenodd"
             data-name="Vector"
             id="path1142" />
        </g>
        <g
           data-name="#ff2044ff"
           id="g1148">
          <path
             d="m 330.477,59.771 c 0.158,0.352 0.336,0.694 0.534,1.025 -0.45,0.33 -0.911,0.643 -1.38,0.946 a 12.98,12.98 0 0 1 -0.647,-1.196 c 0.494,-0.265 1,-0.51 1.493,-0.775 z"
             fill="#ff2044"
             fill-rule="evenodd"
             data-name="Vector"
             id="path1146" />
        </g>
        <g
           data-name="#ff054dff"
           id="g1152">
          <path
             d="m 320.089,60.523 1.67,-0.21 c 0.17,0.666 0.395,1.317 0.635,1.96 -0.521,0.2 -1.023,0.444 -1.536,0.665 -0.3,-0.79 -0.567,-1.593 -0.769,-2.415 z"
             fill="#ff054d"
             fill-rule="evenodd"
             data-name="Vector"
             id="path1150" />
        </g>
        <g
           data-name="#4869faff"
           id="g1156">
          <path
             d="m 349.497,62.217 a 54.481,54.481 0 0 0 1.508,-1.706 c 1.409,0.034 2.82,-0.044 4.226,0.051 a 65.834,65.834 0 0 1 -1.337,1.738 l -0.02,-0.003 c -1.456,-0.122 -2.92,0.017 -4.377,-0.08 z"
             fill="#4869fa"
             fill-rule="evenodd"
             data-name="Vector"
             id="path1154" />
        </g>
        <g
           data-name="#ff2a3bff"
           id="g1160">
          <path
             d="m 329.632,61.743 c 0.468,-0.303 0.93,-0.615 1.379,-0.945 0.2,0.332 0.418,0.654 0.655,0.96 -0.434,0.364 -0.798,0.798 -1.153,1.236 l -0.042,-0.053 c -0.307,-0.38 -0.584,-0.782 -0.839,-1.198 z"
             fill="#ff2a3b"
             fill-rule="evenodd"
             data-name="Vector"
             id="path1158" />
        </g>
        <g
           data-name="#ff2882ff"
           id="g1164">
          <path
             d="m 329.186,60.951 c 0.14,0.268 0.29,0.532 0.447,0.791 0.255,0.415 0.531,0.818 0.838,1.198 -0.688,0.901 -1.512,1.69 -2.263,2.539 -0.314,0.404 -0.507,0.9 -0.905,1.238 -0.48,0.415 -0.95,0.853 -1.286,1.397 l -0.149,-0.165 a 19.626,19.626 0 0 1 -1.113,-1.357 17.9,17.9 0 0 1 -0.33,-0.474 c 0.349,-0.348 0.657,-0.732 0.934,-1.139 0.36,-0.523 0.853,-0.928 1.287,-1.386 0.801,-0.923 1.69,-1.762 2.54,-2.642 z"
             fill="#ff2882"
             fill-rule="evenodd"
             data-name="Vector"
             id="path1162" />
        </g>
        <g
           data-name="#ff3633ff"
           id="g1168">
          <path
             d="m 330.513,62.995 c 0.355,-0.439 0.719,-0.872 1.153,-1.236 0.267,0.337 0.545,0.668 0.849,0.973 -0.38,0.405 -0.797,0.773 -1.202,1.152 -0.285,-0.28 -0.547,-0.58 -0.8,-0.89 z"
             fill="#ff3633"
             fill-rule="evenodd"
             data-name="Vector"
             id="path1166" />
        </g>
        <g
           data-name="#ff0e44ff"
           id="g1172">
          <path
             d="m 320.859,62.937 c 0.512,-0.22 1.014,-0.464 1.536,-0.665 0.03,0.083 0.094,0.246 0.126,0.328 0.162,0.411 0.348,0.813 0.542,1.212 -0.448,0.335 -0.91,0.652 -1.396,0.934 a 21.076,21.076 0 0 1 -0.808,-1.809 z"
             fill="#ff0e44"
             fill-rule="evenodd"
             data-name="Vector"
             id="path1170" />
        </g>
        <g
           data-name="#406dfbff"
           id="g1176">
          <path
             d="m 347.76,64.02 c 0.585,-0.595 1.18,-1.18 1.736,-1.803 1.458,0.097 2.921,-0.043 4.378,0.08 -0.571,0.743 -1.195,1.445 -1.82,2.143 l -0.017,-0.001 c -1.531,-0.107 -3.07,0.052 -4.6,-0.097 l 0.323,-0.321 z"
             fill="#406dfb"
             fill-rule="evenodd"
             data-name="Vector"
             id="path1174" />
        </g>
        <g
           data-name="#ffc200ff"
           id="g1180">
          <path
             d="m 345.28,63.895 a 10.425,10.425 0 0 0 1.53,-1.295 c 0.343,0.454 0.66,0.928 0.951,1.42 l -0.322,0.32 c -0.438,0.427 -0.872,0.86 -1.333,1.264 -0.275,-0.57 -0.519,-1.155 -0.825,-1.709 z"
             fill="#ffc200"
             fill-rule="evenodd"
             data-name="Vector"
             id="path1178" />
        </g>
        <g
           data-name="#ff4924ff"
           id="g1184">
          <path
             d="m 331.314,63.881 c 0.405,-0.379 0.821,-0.747 1.202,-1.152 0.617,0.606 1.304,1.141 2.052,1.576 -0.39,0.409 -0.679,0.899 -0.873,1.428 l -0.139,-0.081 a 11.426,11.426 0 0 1 -1.266,-0.901 c -0.305,-0.25 -0.602,-0.513 -0.89,-0.786 z"
             fill="#ff4924"
             fill-rule="evenodd"
             data-name="Vector"
             id="path1182" />
        </g>
        <g
           data-name="#ff3679ff"
           id="g1188">
          <path
             d="m 330.47,62.94 0.043,0.054 c 0.253,0.308 0.515,0.61 0.8,0.889 l 0.086,0.084 c -0.387,0.535 -0.885,0.979 -1.266,1.518 -0.374,0.514 -0.72,1.049 -1.12,1.543 -0.629,0.742 -0.988,1.694 -1.773,2.302 l -0.21,-0.197 c -0.347,-0.33 -0.69,-0.665 -1.014,-1.018 0.336,-0.545 0.805,-0.982 1.286,-1.397 0.398,-0.338 0.59,-0.834 0.905,-1.238 0.75,-0.85 1.575,-1.638 2.263,-2.54 z"
             fill="#ff3679"
             fill-rule="evenodd"
             data-name="Vector"
             id="path1186" />
        </g>
        <g
           data-name="#ff173eff"
           id="g1192">
          <path
             d="m 321.667,64.746 c 0.485,-0.283 0.948,-0.6 1.396,-0.935 0.233,0.47 0.49,0.927 0.76,1.376 -0.41,0.384 -0.859,0.724 -1.336,1.019 a 22.755,22.755 0 0 1 -0.82,-1.46 z"
             fill="#ff173e"
             fill-rule="evenodd"
             data-name="Vector"
             id="path1190" />
        </g>
        <g
           data-name="#ff4271ff"
           id="g1196">
          <path
             d="m 331.399,63.969 c 0.287,0.272 0.584,0.534 0.89,0.785 -0.658,0.627 -1.014,1.474 -1.538,2.201 -0.208,0.3 -0.31,0.652 -0.437,0.99 -0.21,0.557 -0.641,0.986 -0.911,1.51 -0.2,0.384 -0.36,0.785 -0.557,1.17 A 21.49,21.49 0 0 1 328.29,70.21 c -0.36,-0.28 -0.715,-0.57 -1.05,-0.878 0.785,-0.608 1.144,-1.56 1.772,-2.302 0.4,-0.494 0.746,-1.03 1.12,-1.544 0.381,-0.539 0.88,-0.983 1.267,-1.517 z"
             fill="#ff4271"
             fill-rule="evenodd"
             data-name="Vector"
             id="path1194" />
        </g>
        <g
           data-name="#ffb400ff"
           id="g1200">
          <path
             d="m 342.496,65.24 c 0.989,-0.305 1.93,-0.759 2.784,-1.344 0.307,0.554 0.55,1.14 0.825,1.71 -0.59,0.545 -1.2,1.07 -1.816,1.586 a 85.82,85.82 0 0 1 -0.183,-0.648 c -0.43,0.126 -0.86,0.256 -1.292,0.372 a 13.727,13.727 0 0 0 -0.318,-1.677 z"
             fill="#ffb400"
             fill-rule="evenodd"
             data-name="Vector"
             id="path1198" />
        </g>
        <g
           data-name="#3073fdff"
           id="g1204">
          <path
             d="m 318.271,66.635 c 0.196,-0.891 0.41,-1.787 0.763,-2.63 -0.083,0.872 -0.194,1.74 -0.227,2.617 -0.18,0.004 -0.358,0.007 -0.536,0.013 z m 27.835,-1.029 c 0.46,-0.403 0.895,-0.836 1.333,-1.263 1.528,0.15 3.067,-0.01 4.599,0.097 -0.154,0.176 -0.303,0.355 -0.466,0.524 -0.796,0.811 -1.6,1.613 -2.404,2.415 -0.173,0.172 -0.358,0.329 -0.542,0.487 -1.667,-0.124 -3.344,0.051 -5.01,-0.109 0.225,-0.188 0.452,-0.373 0.674,-0.563 a 50.276,50.276 0 0 0 1.815,-1.588 z"
             fill="#3073fd"
             fill-rule="evenodd"
             data-name="Vector"
             id="path1202" />
        </g>
        <g
           data-name="#ff5c16ff"
           id="g1208">
          <path
             d="m 333.693,65.733 c 0.195,-0.53 0.483,-1.02 0.873,-1.428 0.225,0.129 0.454,0.252 0.688,0.365 a 30.366,30.366 0 0 1 -0.677,1.525 c -0.3,-0.144 -0.594,-0.3 -0.884,-0.462 z"
             fill="#ff5c16"
             fill-rule="evenodd"
             data-name="Vector"
             id="path1206" />
        </g>
        <g
           data-name="#ff660cff"
           id="g1212">
          <path
             d="m 335.255,64.672 c 0.309,0.148 0.625,0.28 0.946,0.401 a 12.584,12.584 0 0 0 -0.651,1.529 14.044,14.044 0 0 1 -0.972,-0.405 c 0.24,-0.502 0.464,-1.01 0.677,-1.525 z"
             fill="#ff660c"
             fill-rule="evenodd"
             data-name="Vector"
             id="path1210" />
        </g>
        <g
           data-name="#ff4f69ff"
           id="g1216">
          <path
             d="m 332.29,64.752 c 0.404,0.324 0.821,0.634 1.266,0.9 -0.539,1.003 -1.134,1.975 -1.618,3.006 -0.153,0.388 -0.257,0.795 -0.459,1.164 -0.333,0.615 -0.555,1.289 -0.953,1.872 -0.367,-0.218 -0.737,-0.434 -1.093,-0.666 a 18.982,18.982 0 0 1 -0.586,-0.406 c 0.197,-0.384 0.358,-0.785 0.557,-1.169 0.27,-0.525 0.702,-0.954 0.91,-1.51 0.13,-0.338 0.23,-0.69 0.438,-0.99 0.524,-0.727 0.88,-1.575 1.538,-2.201 z"
             fill="#ff4f69"
             fill-rule="evenodd"
             data-name="Vector"
             id="path1214" />
        </g>
        <g
           data-name="#ff7200ff"
           id="g1220">
          <path
             d="m 336.201,65.072 c 0.383,0.138 0.773,0.254 1.17,0.343 a 56.82,56.82 0 0 0 -0.34,1.634 l -0.175,-0.04 a 12.424,12.424 0 0 1 -1.306,-0.408 c 0.185,-0.523 0.4,-1.035 0.651,-1.529 z"
             fill="#ff7200"
             fill-rule="evenodd"
             data-name="Vector"
             id="path1218" />
        </g>
        <g
           data-name="#ff2037ff"
           id="g1224">
          <path
             d="m 322.486,66.205 a 8.478,8.478 0 0 0 1.337,-1.018 c 0.19,0.315 0.395,0.624 0.602,0.93 0.108,0.16 0.217,0.318 0.33,0.474 -0.425,0.359 -0.842,0.728 -1.244,1.112 a 24.246,24.246 0 0 1 -1.025,-1.498 z"
             fill="#ff2037"
             fill-rule="evenodd"
             data-name="Vector"
             id="path1222" />
        </g>
        <g
           data-name="#ffa300ff"
           id="g1228">
          <path
             d="m 341.19,65.535 c 0.442,-0.068 0.877,-0.17 1.306,-0.296 0.14,0.552 0.246,1.111 0.318,1.677 -0.295,0.077 -0.589,0.161 -0.885,0.23 -0.203,0.04 -0.409,0.072 -0.614,0.096 a 13.617,13.617 0 0 1 -0.126,-1.707 z"
             fill="#ffa300"
             fill-rule="evenodd"
             data-name="Vector"
             id="path1226" />
        </g>
        <g
           data-name="#ff7f00ff"
           id="g1232">
          <path
             d="m 337.371,65.415 c 0.418,0.09 0.84,0.16 1.265,0.2 a 22.329,22.329 0 0 0 -0.23,1.665 c -0.462,-0.05 -0.92,-0.135 -1.376,-0.23 0.104,-0.547 0.221,-1.092 0.341,-1.635 z"
             fill="#ff7f00"
             fill-rule="evenodd"
             data-name="Vector"
             id="path1230" />
        </g>
        <g
           data-name="#ff9700ff"
           id="g1236">
          <path
             d="m 339.944,65.655 a 10.14,10.14 0 0 0 1.246,-0.12 c 0.006,0.571 0.048,1.141 0.126,1.707 -0.506,0.055 -1.014,0.112 -1.522,0.124 0.047,-0.57 0.098,-1.141 0.15,-1.711 z"
             fill="#ff9700"
             fill-rule="evenodd"
             data-name="Vector"
             id="path1234" />
        </g>
        <g
           data-name="#ff5d60ff"
           id="g1240">
          <path
             d="m 333.556,65.654 0.139,0.081 c 0.29,0.163 0.583,0.318 0.883,0.463 l 0.22,0.1 c -0.29,0.653 -0.604,1.299 -0.8,1.99 -0.167,0.597 -0.525,1.113 -0.752,1.686 -0.355,0.847 -0.474,1.806 -1.025,2.56 a 14.129,14.129 0 0 1 -1.694,-0.839 c 0.397,-0.583 0.62,-1.256 0.953,-1.872 0.201,-0.368 0.305,-0.776 0.459,-1.163 0.484,-1.031 1.079,-2.004 1.617,-3.006 z"
             fill="#ff5d60"
             fill-rule="evenodd"
             data-name="Vector"
             id="path1238" />
        </g>
        <g
           data-name="#ff8c00ff"
           id="g1244">
          <path
             d="m 338.636,65.617 c 0.434,0.039 0.872,0.05 1.308,0.039 -0.052,0.57 -0.104,1.14 -0.15,1.71 -0.147,0.002 -0.292,0 -0.437,-0.005 a 15.625,15.625 0 0 1 -0.951,-0.08 c 0.053,-0.558 0.135,-1.112 0.23,-1.664 z"
             fill="#ff8c00"
             fill-rule="evenodd"
             data-name="Vector"
             id="path1242" />
        </g>
        <g
           data-name="#ff6e54ff"
           id="g1248">
          <path
             d="m 334.797,66.297 c 0.247,0.109 0.499,0.21 0.753,0.304 0.43,0.155 0.862,0.302 1.307,0.409 -0.167,0.424 -0.314,0.859 -0.35,1.316 -0.068,0.813 -0.345,1.589 -0.643,2.343 -0.167,0.418 -0.13,0.878 -0.196,1.317 -0.058,0.37 -0.143,0.736 -0.208,1.105 -0.401,0.203 -0.806,0.402 -1.221,0.573 0.132,-0.084 0.262,-0.173 0.394,-0.262 a 24.81,24.81 0 0 1 -2.434,-0.841 l 0.022,-0.028 c 0.551,-0.754 0.67,-1.713 1.025,-2.56 0.227,-0.573 0.585,-1.089 0.752,-1.687 0.196,-0.69 0.51,-1.336 0.8,-1.99 z"
             fill="#ff6e54"
             fill-rule="evenodd"
             data-name="Vector"
             id="path1246" />
        </g>
        <g
           data-name="#ffa91eff"
           id="g1252">
          <path
             d="m 342.815,66.914 c 0.432,-0.116 0.862,-0.245 1.292,-0.371 l 0.183,0.648 c -0.222,0.19 -0.449,0.376 -0.673,0.563 -0.485,0.407 -0.99,0.79 -1.492,1.175 -0.501,-0.477 -0.218,-1.192 -0.196,-1.785 0.297,-0.068 0.591,-0.153 0.886,-0.23 z"
             fill="#ffa91e"
             fill-rule="evenodd"
             data-name="Vector"
             id="path1250" />
        </g>
        <g
           data-name="#ffca00ff"
           id="g1256">
          <path
             d="m 348.078,70.518 a 57.358,57.358 0 0 0 4.286,-4.038 c 0.771,0.878 1.58,1.774 1.921,2.92 a 20.508,20.508 0 0 1 -5.158,3.962 27.17,27.17 0 0 0 -1.05,-2.844 z"
             fill="#ffca00"
             fill-rule="evenodd"
             data-name="Vector"
             id="path1254" />
        </g>
        <g
           data-name="#2476fdff"
           id="g1260">
          <path
             d="m 318.27,66.633 0.536,-0.013 c -0.035,0.786 -0.003,1.572 0.089,2.354 -0.298,-0.011 -0.595,-0.022 -0.893,-0.03 0.03,-0.776 0.12,-1.549 0.268,-2.311 z"
             fill="#2476fd"
             fill-rule="evenodd"
             data-name="Vector"
             id="path1258" />
        </g>
        <g
           data-name="#ff2a30ff"
           id="g1264">
          <path
             d="m 323.512,67.706 c 0.402,-0.384 0.819,-0.754 1.244,-1.112 0.348,0.47 0.724,0.92 1.113,1.357 -0.36,0.425 -0.749,0.823 -1.155,1.203 -0.43,-0.458 -0.819,-0.95 -1.202,-1.448 z"
             fill="#ff2a30"
             fill-rule="evenodd"
             data-name="Vector"
             id="path1262" />
        </g>
        <g
           data-name="#ff8245ff"
           id="g1268">
          <path
             d="m 336.856,67.01 0.174,0.04 a 13.959,13.959 0 0 0 2.326,0.31 c -0.129,0.678 -0.172,1.366 -0.272,2.047 -0.082,0.6 -0.413,1.176 -0.248,1.794 a 40.814,40.814 0 0 1 -3.376,1.89 c 0.064,-0.369 0.15,-0.735 0.207,-1.105 0.066,-0.44 0.029,-0.9 0.197,-1.318 0.298,-0.753 0.574,-1.529 0.642,-2.342 0.036,-0.457 0.183,-0.893 0.35,-1.316 z"
             fill="#ff8245"
             fill-rule="evenodd"
             data-name="Vector"
             id="path1266" />
        </g>
        <g
           data-name="#ff9632ff"
           id="g1272">
          <path
             d="m 341.314,67.242 c 0.205,-0.024 0.41,-0.056 0.614,-0.096 -0.023,0.593 -0.306,1.308 0.195,1.785 -0.57,0.434 -1.16,0.844 -1.746,1.258 -0.508,0.347 -1.023,0.684 -1.542,1.012 -0.165,-0.618 0.166,-1.194 0.248,-1.794 0.1,-0.68 0.143,-1.37 0.272,-2.047 0.146,0.004 0.291,0.006 0.437,0.005 0.509,-0.011 1.016,-0.068 1.522,-0.123 z"
             fill="#ff9632"
             fill-rule="evenodd"
             data-name="Vector"
             id="path1270" />
        </g>
        <g
           data-name="#1878feff"
           id="g1276">
          <path
             d="m 342.124,68.93 c 0.502,-0.386 1.007,-0.768 1.492,-1.175 1.665,0.16 3.342,-0.015 5.01,0.109 -0.929,0.846 -1.873,1.694 -2.88,2.439 -0.905,-0.143 -1.82,-0.073 -2.73,-0.086 -0.88,-0.002 -1.76,0.014 -2.639,-0.029 0.587,-0.414 1.176,-0.824 1.747,-1.258 z"
             fill="#1878fe"
             fill-rule="evenodd"
             data-name="Vector"
             id="path1274" />
        </g>
        <g
           data-name="#ff3529ff"
           id="g1280">
          <path
             d="m 324.714,69.152 c 0.406,-0.38 0.795,-0.778 1.155,-1.203 l 0.148,0.165 c 0.324,0.353 0.667,0.688 1.014,1.018 a 9.4,9.4 0 0 0 -1.124,1.225 c -0.417,-0.381 -0.81,-0.789 -1.193,-1.205 z"
             fill="#ff3529"
             fill-rule="evenodd"
             data-name="Vector"
             id="path1278" />
        </g>
        <g
           data-name="#1179feff"
           id="g1284">
          <path
             d="m 318.002,68.944 c 0.298,0.009 0.595,0.02 0.893,0.03 0.062,0.43 0.137,0.857 0.232,1.281 l -1.078,0.037 -0.016,0.002 c -0.03,-0.45 -0.037,-0.9 -0.03,-1.35 z"
             fill="#1179fe"
             fill-rule="evenodd"
             data-name="Vector"
             id="path1282" />
        </g>
        <g
           data-name="#ff3f23ff"
           id="g1288">
          <path
             d="m 327.03,69.13 0.21,0.198 c 0.336,0.309 0.69,0.598 1.05,0.879 a 29.15,29.15 0 0 1 -1.222,1.16 c -0.396,-0.327 -0.793,-0.653 -1.162,-1.01 a 9.4,9.4 0 0 1 1.124,-1.226 z"
             fill="#ff3f23"
             fill-rule="evenodd"
             data-name="Vector"
             id="path1286" />
        </g>
        <g
           data-name="#0082ffff"
           id="g1292">
          <path
             d="m 318.035,70.285 c 0.36,-0.013 0.734,-0.02 1.092,-0.031 0.386,1.542 1.188,3.017 2.475,3.986 1.517,1.174 3.515,1.484 5.386,1.379 1.853,-0.102 3.663,-0.577 5.401,-1.207 a 31.833,31.833 0 0 0 1.848,-0.748 c 0.416,-0.172 0.82,-0.37 1.222,-0.573 a 40.816,40.816 0 0 0 3.376,-1.89 c 0.52,-0.33 1.034,-0.666 1.542,-1.012 0.879,0.042 1.759,0.026 2.638,0.028 0.911,0.013 1.826,-0.057 2.73,0.086 -0.722,0.597 -1.492,1.135 -2.256,1.679 l -0.014,0.01 c -3.206,2.208 -6.699,4.061 -10.45,5.152 -2.5,0.719 -5.154,1.1 -7.744,0.682 -1.91,-0.31 -3.793,-1.13 -5.124,-2.566 -1.255,-1.344 -1.972,-3.154 -2.122,-4.975 z"
             fill="#0082ff"
             fill-rule="evenodd"
             data-name="Vector"
             id="path1290" />
        </g>
        <g
           data-name="#ff4a1bff"
           id="g1296">
          <path
             d="m 327.068,71.37 c 0.42,-0.373 0.824,-0.765 1.222,-1.161 a 21.467,21.467 0 0 0 1.142,0.82 c -0.32,0.455 -0.637,0.918 -1.034,1.311 a 23.656,23.656 0 0 1 -1.33,-0.97 z"
             fill="#ff4a1b"
             fill-rule="evenodd"
             data-name="Vector"
             id="path1294" />
        </g>
        <g
           data-name="#ffb700ff"
           id="g1300">
          <path
             d="m 343.37,74.027 c 1.636,-1.076 3.183,-2.283 4.707,-3.51 0.397,0.93 0.758,1.875 1.05,2.844 a 20.242,20.242 0 0 1 -5.58,2.005 c -0.05,-0.448 -0.108,-0.894 -0.177,-1.339 z"
             fill="#ffb700"
             fill-rule="evenodd"
             data-name="Vector"
             id="path1298" />
        </g>
        <g
           data-name="#ff5316ff"
           id="g1304">
          <path
             d="m 328.398,72.34 c 0.397,-0.395 0.713,-0.857 1.034,-1.313 0.356,0.233 0.726,0.449 1.093,0.666 l 0.234,0.135 c -0.274,0.482 -0.558,0.958 -0.842,1.435 a 21.564,21.564 0 0 1 -1.52,-0.924 z"
             fill="#ff5316"
             fill-rule="evenodd"
             data-name="Vector"
             id="path1302" />
        </g>
        <g
           data-name="#ff5e0bff"
           id="g1308">
          <path
             d="m 330.761,71.83 c 0.471,0.265 0.961,0.493 1.46,0.704 l -0.021,0.027 a 5.316,5.316 0 0 0 -0.859,1.417 c -0.483,-0.22 -0.959,-0.455 -1.423,-0.713 0.285,-0.477 0.569,-0.953 0.843,-1.436 z"
             fill="#ff5e0b"
             fill-rule="evenodd"
             data-name="Vector"
             id="path1306" />
        </g>
        <g
           data-name="#c0c1c7ff"
           id="g1312">
          <path
             d="m 343.489,71.984 -0.012,0.009 z"
             fill="#c0c1c7"
             fill-rule="evenodd"
             data-name="Vector"
             id="path1310" />
        </g>
        <g
           data-name="#ff6900ff"
           id="g1316">
          <path
             d="m 331.34,73.979 c 0.214,-0.514 0.498,-0.994 0.86,-1.416 0.797,0.316 1.606,0.608 2.432,0.84 -0.131,0.09 -0.261,0.179 -0.394,0.263 -0.606,0.271 -1.225,0.516 -1.848,0.748 a 21.504,21.504 0 0 1 -1.05,-0.435 z"
             fill="#ff6900"
             fill-rule="evenodd"
             data-name="Vector"
             id="path1314" />
        </g>
        <g
           data-name="#ffa500ff"
           id="g1320">
          <path
             d="m 340.62,75.71 c 0.888,-0.606 1.858,-1.08 2.75,-1.683 0.07,0.445 0.128,0.892 0.177,1.34 -0.966,0.172 -1.943,0.332 -2.926,0.342 z"
             fill="#ffa500"
             fill-rule="evenodd"
             data-name="Vector"
             id="path1318" />
        </g>
      </g>
    </g>
  </g>
  <g
     id="layer2"
     style="display:inline"
     transform="translate(-0.09657449,-1.1208961)" />
</svg>
