<svg xmlns="http://www.w3.org/2000/svg" width="26" height="25" viewBox="2.75 2.75 26 25"><g data-name="https://www.flaticon.com/free-icon/hexagon_5555876?related_id=5555876"><path d="M28.914 12.438c.116.369.115.766-.005 1.134l-4.282 13.2a1.787 1.787 0 0 1-.63.888c-.296.22-.652.34-1.017.34H9.02c-.365 0-.72-.12-1.016-.34a1.787 1.787 0 0 1-.63-.888l-4.284-13.2a1.863 1.863 0 0 1-.003-1.135c.117-.37.346-.69.653-.914L15.002 3.33a1.686 1.686 0 0 1 2 0l11.26 8.194c.306.225.535.545.652.914ZM16.499 4.06c-.022-.015-.044-.02-.065-.034v7.223l3.987 2.877 7.388-1.825c-.017-.014-.029-.034-.047-.047L16.5 4.06Zm3.315 10.716L16 12.026l-3.813 2.75 1.517 4.295h4.593l1.517-4.295ZM4.24 12.253c-.02.013-.03.033-.049.048l7.389 1.825 3.987-2.877V4.024c-.02.012-.044.018-.063.033L4.24 12.253Zm3.955 14.236c.005.017.016.029.022.045l4.7-7.08-1.578-4.47-7.45-1.839a.93.93 0 0 0 .023.142L8.195 26.49Zm14.785.618a.787.787 0 0 0 .121-.02l-4.729-7.123H13.63l-4.73 7.123c.04.01.08.017.122.02h13.96Zm5.109-13.82a.93.93 0 0 0 .022-.142l-7.45 1.84-1.577 4.47 4.7 7.08c.007-.017.018-.03.023-.045l4.282-13.202Z" fill="#191919" fill-rule="evenodd"/><path d="M28.914 12.438c.116.369.115.766-.005 1.134l-4.282 13.2a1.787 1.787 0 0 1-.63.888c-.296.22-.652.34-1.017.34H9.02c-.365 0-.72-.12-1.016-.34a1.787 1.787 0 0 1-.63-.888l-4.284-13.2a1.863 1.863 0 0 1-.003-1.135c.117-.37.346-.69.653-.914L15.002 3.33a1.686 1.686 0 0 1 2 0l11.26 8.194c.306.225.535.545.652.914ZM16.499 4.06c-.022-.015-.044-.02-.065-.034v7.223l3.987 2.877 7.388-1.825c-.017-.014-.029-.034-.047-.047L16.5 4.06Zm3.315 10.716L16 12.026l-3.813 2.75 1.517 4.295h4.593l1.517-4.295ZM4.24 12.253c-.02.013-.03.033-.049.048l7.389 1.825 3.987-2.877V4.024c-.02.012-.044.018-.063.033L4.24 12.253Zm3.955 14.236c.005.017.016.029.022.045l4.7-7.08-1.578-4.47-7.45-1.839a.93.93 0 0 0 .023.142L8.195 26.49Zm14.785.618a.787.787 0 0 0 .121-.02l-4.729-7.123H13.63l-4.73 7.123c.04.01.08.017.122.02h13.96Zm5.109-13.82a.93.93 0 0 0 .022-.142l-7.45 1.84-1.577 4.47 4.7 7.08c.007-.017.018-.03.023-.045l4.282-13.202Z" stroke-linejoin="round" stroke-linecap="round" stroke-width=".5" stroke="#191919" fill="transparent"/></g></svg>